<svg id="logo_adept" data-name="logo adept" xmlns="http://www.w3.org/2000/svg" viewBox="0 0 1000 1000"><defs><style>.cls-1{fill:none;}.cls-1,.cls-2{stroke:#000;stroke-miterlimit:10;stroke-width:6px;}.cls-2,.cls-6{fill:#fff;}.cls-3{fill:#009b02;}.cls-4{fill:#070;}.cls-5{fill:#25c551;}.cls-7{fill:#fdfefd;}.cls-8{fill:#fefffe;}.cls-9{fill:#20ac47;}.cls-10{fill:#21af48;}.cls-11{fill:#20ad47;}.cls-12{fill:#20ab46;}.cls-13{fill:#21b048;}.cls-14{fill:#000100;}</style></defs><g id="contour_noir" data-name="contour noir"><path class="cls-1" d="M158.5,281.5l282-161c35.81-19,68.22-19.39,97,0l285,165a69.24,69.24,0,0,1,33,54l1,108,103-8-24,193-80,31c-1.5,35.5-7.5,63.5-41,85l-277,159c-37.5,20.5-62.5,17.5-95,0l-274-156c-15.5-10.5-37.5-21.5-40-44l-106,8,25-193,74-29,2-150C126,314,136,295.55,158.5,281.5Z"/></g><g id="contour_blanc" data-name="contour blanc"><path class="cls-1" d="M181.48,295.35l264.13-150.8c33.55-17.79,63.9-18.17,90.86,0L803.42,299.09a64.87,64.87,0,0,1,30.91,50.58l.93,101.16-.93,202.32c-1.24,32.91-7,59.48-38.41,79.62L536.47,881.7c-35.12,19.2-58.54,16.39-89,0L190.84,735.58c-20.75-14.52-35.62-19.11-37.46-41.22l-6.56-200.44,1.87-140.5C151,325.79,160.41,308.51,181.48,295.35Z"/><path class="cls-2" d="M158,280.14l282-161c35.81-19,68.22-19.4,97,0l285,165a69.24,69.24,0,0,1,33,54l1,108,103-8-24,193-80,31c-1.5,35.5-7.5,63.5-41,85l-277,159c-37.5,20.5-62.5,17.5-95,0l-274-156c-15.5-10.5-37.5-21.5-40-44l-106,8,25-193,74-29,2-150C125.5,312.64,135.51,294.19,158,280.14Z"/></g><g id="fond_couleur" data-name="fond couleur"><g id="vert"><path class="cls-3" d="M834.24,348.61l.93,101.16-.93,202.32c-.66,17.43-2.59,33.08-8.92,46.94L494,507.58,822.67,316.19A65,65,0,0,1,834.24,348.61Z"/><path class="cls-4" d="M494,507.58,825.32,699c-5.63,12.31-14.73,23.21-29.49,32.67L536.38,880.63c-35.13,19.2-58.54,16.39-89,0L190.75,734.51c-16.67-11.66-29.54-16.91-34.92-30Z"/><path class="cls-5" d="M494,507.58,155.83,704.52a37.46,37.46,0,0,1-2.54-11.22l-6.56-200.44,1.87-140.5c2.34-27.63,11.72-44.91,32.79-58.08l264.13-150.8c33.55-17.78,63.9-18.16,90.86,0L803.33,298a64.24,64.24,0,0,1,19.34,18.16Z"/></g></g><g id="ligne_blanche" data-name="ligne blanche"><g id="ceinture"><circle class="cls-6" cx="368.5" cy="236.5" r="19.5"/><circle class="cls-6" cx="612.5" cy="236.5" r="19.5"/><path class="cls-6" d="M354,235,216,315c-20.5,12.5-29.57,31.4-30,56V656c.65,21.22,8.5,35.5,27,50L452.5,841.5c26,14,50.1,15.86,78,0l235-136c21-14,29-33,31-55v-293c0-19-17.68-32.59-35-43l-130-74-9,14,118,66c22,12.86,40,28,41,49v278c0,22-13,34-33,48l-218,127c-28,16-51,15-80,0l-227-131c-17-12-20.79-24.68-22-43v-282c1.05-17.59,13.11-29.08,28-39l134-78Z"/></g><g id="connections"><path class="cls-6" d="M427.19,653.8c.67,1,.12,1.88-.11,2.88a43.13,43.13,0,0,0-1.1,16.84c1.44,9.75,7.42,15.63,17.28,16.73A38.08,38.08,0,0,0,457,689.7a16.49,16.49,0,0,0,4.1-1.55,9.87,9.87,0,0,0,5.32-9.31,1.86,1.86,0,0,0-1.44-2,6.09,6.09,0,0,1-4.43-5.88,6.17,6.17,0,0,1,4.43-6.09,6.3,6.3,0,0,1,7,2.44,6,6,0,0,1-.44,7.53,5,5,0,0,0-1.55,4.32,12.79,12.79,0,0,1-4.21,10.09,1.23,1.23,0,0,0-.67,1.22h1.78c2.88-.12,5.76-.23,8.64-.12a3.13,3.13,0,0,0,3.1-1.77,6,6,0,0,1,7.09-2.77,6.55,6.55,0,0,1,4.55,5.87,6.33,6.33,0,0,1-4.21,6.1,5.85,5.85,0,0,1-7-2.11c-1-1.55-2.11-1.66-3.66-1.66-8.53.22-17.07.33-25.71.44a40.65,40.65,0,0,1-11-1.33c-8.87-2.43-14.18-8.31-16-17.28a46.56,46.56,0,0,1,1.33-21.72Z"/><path class="cls-6" d="M634.64,635.07a77,77,0,0,1-2.44,24.16,34.46,34.46,0,0,1-3.88,9.08c-3.88,6.32-9.53,9.64-17.06,9.42-4.21-.11-8.42-.55-12.53-.33a37.17,37.17,0,0,0-7.09.89,8.13,8.13,0,0,0-6.87,7.42c-.11.55-.11,1.22-.22,1.66a2.29,2.29,0,0,0,1.33,3.11,6.05,6.05,0,0,1,2.66,7.09,6.21,6.21,0,0,1-11.86.11,5.83,5.83,0,0,1,2.44-7.09c1.44-.89,1.66-1.89,1.88-3.33.78-8.2,4.1-11.63,12.19-13a56.64,56.64,0,0,1,10.64-.45c2.66,0,5.21.11,7.87.22,5.87.23,10.31-2.32,13.41-7.31a36.79,36.79,0,0,0,4.76-13.19,99.37,99.37,0,0,0,1.33-18.17C632.2,635.29,633.42,635.18,634.64,635.07Z"/><path class="cls-6" d="M713.76,628a39.29,39.29,0,0,0,3.32,9.75c1.89,3.43,4.44,6.09,8.32,7.2a14.58,14.58,0,0,0,4.87.33,32.34,32.34,0,0,1,5.65-.11c6,.45,9.87,4.21,10.31,10.2.11,1.44,0,2.77.11,4.21a11.8,11.8,0,0,1-.44,2.1,4,4,0,0,0,.88,4.21,5.84,5.84,0,0,1-.11,7.32,6.31,6.31,0,0,1-7,2.21,6.08,6.08,0,0,1-4.21-6,5.77,5.77,0,0,1,4.32-5.87c2.11-.45,2.55-1.55,2.66-3.33.11-1.55.55-3.1,0-4.65a2.54,2.54,0,0,1-.66-1.33c-1.33-3.55-3.11-4.88-6.87-5-1.11,0-2.22-.11-3.44-.22s-2.77,0-4.1-.11a15.69,15.69,0,0,1-12-7.2c-.66-1-1.33-2-2-3.11-2.22-3.21-3.88-6.53-3.11-10.52A11.76,11.76,0,0,1,713.76,628Z"/><path class="cls-7" d="M539.23,643.82v33.36c0,1.55.11,2.66,1.66,3.65a5.68,5.68,0,0,1,2.33,6.87,6.44,6.44,0,0,1-6,4.44,6.53,6.53,0,0,1-6.09-4.55,5.84,5.84,0,0,1,2.55-6.87,3.36,3.36,0,0,0,1.77-3.32c-.11-11-.11-22-.11-33A6,6,0,0,1,539.23,643.82Z"/><path class="cls-6" d="M297.65,665.54c0,7.09.11,14.19,0,21.17a2.91,2.91,0,0,0,1.67,3.1,6,6,0,0,1,2.66,6.87,6.31,6.31,0,0,1-12,.67,6,6,0,0,1,2.44-7.54,2.85,2.85,0,0,0,1.55-2.88V666A21,21,0,0,1,297.65,665.54Z"/><path class="cls-8" d="M345.75,661.11a28.81,28.81,0,0,1,.11,6.87,3,3,0,0,0,1.66,3.1A6,6,0,0,1,350,678.4a6.19,6.19,0,0,1-6.1,4.1,6.35,6.35,0,0,1-5.87-5.1,5.94,5.94,0,0,1,2.88-6.54,2.53,2.53,0,0,0,1.44-2.55c-.11-2.32,0-4.65,0-6.87A18.22,18.22,0,0,0,345.75,661.11Z"/><path class="cls-6" d="M506,838.84a2.13,2.13,0,0,0,.14-.85v-2c-.1-20.2-.4-40.4-.3-60.6.1-6.6-2.9-11.2-7.4-15.2-4.3-3.8-9.6-5.5-15.1-6.6a70.91,70.91,0,0,0-11.3-1.1c-1.2,0-2,.1-2.6,1.4a5.31,5.31,0,0,1-6.4,2.8,5.76,5.76,0,0,1-4.3-5.6,5.65,5.65,0,0,1,4.7-5.4,5,5,0,0,1,5.3,2,3.37,3.37,0,0,0,3.2,1.4,57.77,57.77,0,0,1,18,2.7c8.2,2.8,14.7,7.7,18.2,15.9a1.38,1.38,0,0,1,.3.4c.8-.4,1.1-1.2,1.6-1.8a47.42,47.42,0,0,1,9-8.9c4.5-3.2,9.5-5.2,15.2-4.9a17,17,0,0,1,5,.9,3,3,0,0,0,2.9-.2,5.16,5.16,0,0,1,6,.8,5.39,5.39,0,0,1,1.8,5.8,5.45,5.45,0,0,1-4.5,4.1,5.55,5.55,0,0,1-6.5-5.4c-.1-2-.1-2-2-2.4a17.51,17.51,0,0,0-11.7,1.5,28.21,28.21,0,0,0-6.5,4.3A66.55,66.55,0,0,0,513,768c-2.3,2.6-3.9,5.4-3.1,9,.1,19.2.1,38.3.2,57.5v2.1"/><path class="cls-6" d="M444.08,820.21a3.76,3.76,0,0,1-2.2-3.8,83,83,0,0,0-1.5-18.6,30.83,30.83,0,0,0-4.5-11.3,13,13,0,0,0-10.3-5.9,22.06,22.06,0,0,0-5.1.5,31.85,31.85,0,0,1-11.1.2c-8.4-1.5-14-6.2-16.5-14.4-.5-1.7-.4-1.7,1-2.6a5.67,5.67,0,0,0-2.6-10.6,5.71,5.71,0,0,0-5.5,3.8,5.55,5.55,0,0,0,2.1,6.5,3.47,3.47,0,0,1,1.6,2.5c.1.5.3,1,.4,1.5,2.8,9.6,11,16.1,21.3,16.8a43,43,0,0,0,11.3-.7c5.2-.9,8.8.8,11.5,5.3a30.12,30.12,0,0,1,2.1,4.9,64.58,64.58,0,0,1,2.5,16.9c.1,1.7,0,3.4,0,5.5"/><path class="cls-6" d="M332.73,755.07a3,3,0,0,1-.05-.91c.2-2.4.2-4.9.5-7.3a37.19,37.19,0,0,1,3.3-13.1c2.8-5.9,7.3-9,14-8.7,3.3.1,6.5.1,9.8,0a28,28,0,0,0,8.6-1.3,10.17,10.17,0,0,0,7.5-8.5,19.73,19.73,0,0,0,.4-3.5,2.17,2.17,0,0,1,1.2-2.1,5.3,5.3,0,0,0,2.6-5.7,5.68,5.68,0,0,0-11-.8,5.37,5.37,0,0,0,2.5,6.5,2.1,2.1,0,0,1,1.3,2.8c-.1.7-.1,1.3-.2,2a7.27,7.27,0,0,1-5.4,6.2,40.14,40.14,0,0,1-5,.9,96.13,96.13,0,0,1-12,.2c-7.8-.3-13.4,3.1-16.9,10a20.62,20.62,0,0,0-1.2,2.6,43.61,43.61,0,0,0-2.7,11.2c-.3,2.6-.4,5.3-.5,8"/><path class="cls-6" d="M593.4,786.41a6.89,6.89,0,0,1-.1-2c0-8.7.1-17.3,0-25.9a3.4,3.4,0,0,1,1.6-3.3,5.28,5.28,0,0,0,1.5-7.3,5.66,5.66,0,0,0-7-2.4,5.25,5.25,0,0,0-3.6,4.7,5.32,5.32,0,0,0,2.8,5.4c.9.6,1.4,1,1.4,2.2v29a2.84,2.84,0,0,1-1.6,2.8l-.17.1"/><path class="cls-6" d="M683.24,733.61c0-.2-.1-.4-.1-.6-.2-10.5-.5-21.1-.8-31.6a5.31,5.31,0,0,1,.1-1.8c1.9-5.8,4.4-11.3,8.6-15.9a12.17,12.17,0,0,1,4.3-3.1,5.39,5.39,0,0,1,2.8-.5c.9.2.8,1.2,1.2,1.8a5.73,5.73,0,0,0,8.2,1.4,5.63,5.63,0,0,0,.8-8.3,5.53,5.53,0,0,0-8.3-.1c-1,1.2-1.9,2-3.6,1.9-.4-.1-.9.2-1.3.3A16,16,0,0,0,688,682a42.89,42.89,0,0,0-6.2,10c-.4.8-.5,1.6-1.2,2.2a3,3,0,0,0-.5-.7l-.6-.9A13.09,13.09,0,0,0,671,687a19.57,19.57,0,0,0-8,.2,3.82,3.82,0,0,1-3.8-.9c-1.8-1.6-4.6-1.4-6.6,0a5.5,5.5,0,0,0-2,6.3,5.58,5.58,0,0,0,5.4,3.9,5.36,5.36,0,0,0,5.4-4.1,2.25,2.25,0,0,1,2.2-2,21.5,21.5,0,0,1,6.2-.2,10.43,10.43,0,0,1,8.9,9.7l.9,34.5a2.88,2.88,0,0,1-1.7,3"/></g></g><g id="ligne_noir" data-name="ligne noir"><polygon points="932 466 914 611 48 688 69 545 932 466"/><path d="M148.83,371,816,311c9.23,7.2,15.9,18.73,18.24,37.61l.93,101.16L146,513Z"/></g><g id="texte"><g id="mileu"><path class="cls-6" d="M235.31,466l-3.7-39.83L211.69,428l-.92-10,49.79-4.62.92,10-19.91,1.84L245.26,465Z"/><path class="cls-6" d="M275.14,462.25l-4.62-49.78,49.78-4.62.92,9.95-39.82,3.7.92,10,19.91-1.85.93,10-19.92,1.84.93,10,39.83-3.7.92,10Z"/><path class="cls-6" d="M334.88,456.71l-4.62-49.79L380,402.3l.93,10L341.14,416l2.77,29.87,39.83-3.7.92,10Z"/><path class="cls-6" d="M394.62,451.16,390,401.38l10-.93,1.85,19.92,29.87-2.77-1.85-19.92,10-.92,4.62,49.78-10,.93-1.85-19.92-29.87,2.78,1.85,19.91Z"/><path class="cls-6" d="M454.36,445.62l-4.62-49.79,49.79-4.62L504.15,441l-10,.92-3.69-39.83-29.87,2.78,3.69,39.83Z"/><path class="cls-6" d="M514.11,440.08l-4.62-49.79,10-.92,4.62,49.78Z"/><path class="cls-6" d="M554.86,446.34l-.92-10L534,438.23l-4.62-49.79,49.79-4.62,4.62,49.79-19.92,1.85.93,10Zm18.07-21.77-2.77-29.87-29.88,2.78,2.78,29.87,10-.93-.92-9.95,10-.93.92,10Z"/><path class="cls-6" d="M593.77,432.68l-4.62-49.78,10-.93,3.7,39.83L632.67,419,629,379.2l10-.92,4.62,49.78Z"/><path class="cls-6" d="M653.51,427.14l-4.62-49.79,49.78-4.62.93,10-39.83,3.7.92,9.95,19.92-1.84.92,9.95-19.91,1.85.92,10,39.83-3.7.92,10Z"/><path class="cls-6" d="M713.25,421.6l-.92-10,39.83-3.7-.93-9.95-39.83,3.69-2.77-29.87,49.79-4.62.92,10-39.83,3.69.93,10,39.83-3.7L763,417Z"/><path class="cls-6" d="M156.41,636.45,152,586.64l10-.88,4.42,49.8Z"/><path class="cls-6" d="M176.33,634.68l-4.42-49.8,49.81-4.42,4.42,49.8-10,.88-3.54-39.84L182.76,594l3.53,39.85Z"/><path class="cls-6" d="M236.1,629.38l-4.42-49.81,49.8-4.42.89,10-39.85,3.54.89,10,19.92-1.77.88,10-19.92,1.77,1.77,19.92Z"/><path class="cls-6" d="M295.86,624.07l-4.42-49.8,49.81-4.43,4.42,49.81Zm39-13.5-2.65-29.88-29.88,2.65,2.65,29.88Z"/><path class="cls-6" d="M355.63,618.76,351.21,569l49.8-4.42,2.65,29.88-19.92,1.77,14.4,12-6.09,7.36-21.69-18.15-6.54.58,1.77,19.92Zm37.19-33.41-.89-10L362.05,578l.89,10Z"/><path class="cls-6" d="M415.39,613.46,411,563.66l49.81-4.43L465.2,609l-10,.88-3.54-39.84-10,.88,3.54,39.85-10,.88-3.53-39.84-10,.88,3.53,39.85Z"/><path class="cls-6" d="M475.16,608.15l-4.42-49.8,49.8-4.42,4.42,49.8-10,.89-1.77-19.92-29.88,2.65,1.77,19.92Zm37.19-33.41-.89-10-29.88,2.66.89,10Z"/><path class="cls-6" d="M554.84,601.08l-3.53-39.84L531.39,563l-.89-10,49.81-4.42.88,10-19.92,1.77,3.53,39.85Z"/><path class="cls-6" d="M594.69,597.54l-4.42-49.8,10-.88,4.42,49.8Z"/><path class="cls-6" d="M635.41,604l-.88-10-19.92,1.77L610.19,546l49.8-4.42,4.42,49.8-19.92,1.77.89,10Zm18.16-21.69-2.65-29.88L621,555.05l2.66,29.88,10-.88-.89-10,10-.89.89,10Z"/><path class="cls-6" d="M674.37,590.47,670,540.67l10-.89,3.54,39.84L713.33,577l-3.53-39.84,10-.88,4.42,49.8Z"/><path class="cls-6" d="M734.14,585.17l-4.42-49.81,49.8-4.42.89,10-39.85,3.54.89,10,19.92-1.77.88,10-19.92,1.77.88,10,39.85-3.54.88,10Z"/><path class="cls-6" d="M793.9,579.86l-.88-10,39.84-3.54-.88-10-39.85,3.54-2.65-29.88,49.81-4.43.88,10-39.84,3.53.88,10,39.84-3.53,2.66,29.88Z"/></g><g id="ADEPT"><path d="M420,280.4V254.15h26.25V280.4H441V269.9H425.29v10.5Zm21-15.75V259.4H425.29v5.25Z"/><path d="M451.54,280.4V254.15h21l5.25,5.25v15.75l-5.25,5.25Zm19.24-5.2,1.8-1.77V261.21l-1.8-1.81h-14v15.8Z"/><path d="M483,280.4V254.15h26.25v5.25h-21v5.25h10.5v5.25h-10.5v5.25h21v5.25Z"/><path d="M514.54,280.4V254.15h26.25V269.9h-21v10.5Zm21-15.75V259.4H519.79v5.25Z"/><path d="M556.54,280.4v-21H546v-5.25h26.25v5.25h-10.5v21Z"/></g></g><g id="logo"><g id="serveur"><path d="M465.28,194.82h16.5c3.1,0,3.9.9,4,4v3.8c-.1,2-1,3-3,3.2a10.87,10.87,0,0,1-1.8.1h-31.2c-4.4,0-5.1-.7-5.1-5.2v-2.5c.1-2.3,1.1-3.4,3.4-3.4h17.2Z"/><path d="M465.18,207.32h16.5c3.2,0,4,.9,4.1,4.1v3.8a3,3,0,0,1-2.6,3.1,10.87,10.87,0,0,1-1.8.1h-32.3a5.7,5.7,0,0,1-1.3-.1,3.14,3.14,0,0,1-3-3.3,33.79,33.79,0,0,1,0-4.5c.1-2.2,1.1-3.2,3.3-3.3,2.5-.1,5.1,0,7.6,0C458.78,207.32,462,207.32,465.18,207.32Z"/><path d="M465.18,219.82h16.5c3.1,0,4,.9,4,3.9v3.8a3.06,3.06,0,0,1-2.9,3.3,10.87,10.87,0,0,1-1.8.1h-31.6a13.4,13.4,0,0,1-2-.1,3,3,0,0,1-2.7-3.1c-.1-1.3.1-2.5,0-3.8-.2-2.7,1.1-4.3,4.1-4.2C454.18,219.92,459.68,219.82,465.18,219.82Z"/><path class="cls-9" d="M478.78,199a1.54,1.54,0,0,1,1.5,1.5,1.27,1.27,0,0,1-1.4,1.2c-.8,0-1.2-.5-1.2-1.3S478.08,199.12,478.78,199Z"/><path class="cls-10" d="M474,199a1.4,1.4,0,0,1,1.3,1.3,1.29,1.29,0,0,1-1.4,1.3,1.14,1.14,0,0,1-1.1-1.4C472.68,199.52,473.18,199.12,474,199Z"/><path class="cls-11" d="M478.88,211.52c.7,0,1.5.8,1.3,1.5a1.14,1.14,0,0,1-1.4,1.1,1.18,1.18,0,0,1-1.2-1.3A1.48,1.48,0,0,1,478.88,211.52Z"/><path class="cls-10" d="M475.28,212.92c-.2.7-.5,1.2-1.3,1.2a1.32,1.32,0,0,1-1.3-1.5,1.14,1.14,0,0,1,1.4-1.1A1.41,1.41,0,0,1,475.28,212.92Z"/><path class="cls-12" d="M479.08,226.62a1.26,1.26,0,0,1-1.4-1.1,1.27,1.27,0,0,1,1-1.5,1.31,1.31,0,0,1,1.5,1.3C480.28,226.12,479.78,226.52,479.08,226.62Z"/><path class="cls-13" d="M475.28,225.32c-.2.7-.5,1.3-1.3,1.3a1.18,1.18,0,0,1-1.3-1.2A1.24,1.24,0,0,1,474,224,1.4,1.4,0,0,1,475.28,225.32Z"/></g><g id="code"><path class="cls-14" d="M521.58,228.77c-2-.1-2.6-.9-2-3,2.6-9,5.2-17.9,7.8-26.9.5-1.8.9-2,2.5-1.5s1.8.9,1.3,2.7c-2.3,8.1-4.7,16.2-7,24.3-.3,1.1-.6,2.1-.9,3.2C522.88,228.37,522.38,228.87,521.58,228.77Z"/><path class="cls-14" d="M546.08,212.87a2,2,0,0,1-.7,1.5l-9.6,9.6c-1.1,1-1.7.9-2.8-.2s-1.1-1.7-.1-2.7l6.6-6.6c1.4-1.4,1.4-1.4.1-2.7-2.1-2.2-4.3-4.3-6.4-6.5-1.2-1.3-1.2-1.9.1-3.1,1-.9,1.6-.9,2.5,0,3.3,3.2,6.5,6.5,9.8,9.8A.87.87,0,0,1,546.08,212.87Z"/><path class="cls-14" d="M516.08,224.67c-.7,0-1-.4-1.4-.8l-9.4-9.4c-1.2-1.2-1.2-1.6,0-2.8l9.3-9.3c1.3-1.3,1.9-1.3,3-.1s1.2,1.8-.2,3.1c-2.1,2.2-4.3,4.3-6.4,6.5-1.2,1.2-1.2,1.2,0,2.4,2.2,2.3,4.5,4.5,6.7,6.8.5.5,1.1,1.2.5,1.9S517,224.57,516.08,224.67Z"/></g></g></svg>